<svg width="858.095761px" height="926.104703px" viewBox="0 0 858.095761 926.104703" version="1.1" xmlns="http://www.w3.org/2000/svg" xmlns:xlink="http://www.w3.org/1999/xlink">
    <title>Fill-8</title>
    <g id="Page-1" stroke="none" stroke-width="1" fill-rule="evenodd">
        <path d="M841.125626,558.440702 C818.840626,512.551702 782.287626,482.161702 738.215626,472.866702 C699.290626,464.644702 658.717626,474.428702 629.720626,499.008702 C566.090626,552.939702 590.226626,636.737702 611.894626,673.515702 C620.587626,688.281702 639.551626,693.176702 654.341626,684.549702 C669.142626,675.924702 674.159626,656.892702 665.608626,642.046702 C664.161626,639.527702 630.502626,579.959702 669.972626,546.502702 C684.418626,534.270702 705.126626,529.521702 725.371626,533.780702 C750.206626,539.019702 771.435626,557.434702 785.133626,585.638702 C797.717626,611.557702 802.069626,664.146702 781.884626,718.371702 C766.869626,758.728702 732.997626,813.696702 657.009626,846.359702 C600.010626,870.844702 539.097626,869.822702 475.954626,843.303702 C422.525626,820.866702 380.244626,785.293702 355.444626,758.949702 C367.648626,755.630702 379.734626,751.765702 391.475626,746.699702 C485.585626,706.102702 521.200626,642.027702 534.519626,595.423702 C548.799626,545.400702 540.971626,505.338702 540.034626,500.938702 C536.227626,483.073702 518.627626,471.563702 500.765626,475.379702 C482.904626,479.189702 471.483626,496.645702 475.302626,514.508702 C475.349626,514.800702 480.995626,544.343702 470.131626,579.886702 C455.935626,626.388702 420.651626,662.075702 365.276626,685.964702 C296.619626,715.583702 215.520626,705.533702 153.646626,659.741702 C89.3416265,612.157702 58.1146265,534.019702 67.9696265,445.359702 C77.0426265,363.620702 124.316626,296.809702 208.439626,246.785702 C274.191626,207.686702 338.603626,194.075702 339.196626,193.953702 C348.471626,192.065702 356.488626,186.293702 361.232626,178.098702 C365.822626,170.149702 366.901626,160.653702 364.233626,151.890702 C361.659626,141.551702 357.591626,100.324702 372.784626,79.8667025 C376.852626,74.3837025 384.525626,67.0017025 404.011626,66.1877025 C411.614626,65.8727025 429.309626,65.1397025 443.671626,98.1127025 C453.337626,120.329702 455.235626,144.235702 455.247626,144.371702 C455.887626,153.806702 460.548626,162.511702 468.044626,168.282702 C475.527626,174.055702 485.134626,176.350702 494.420626,174.579702 C603.165626,153.871702 680.955626,244.452702 709.205626,284.099702 C652.325626,351.449702 585.280626,356.199702 546.083626,351.567702 C546.853626,348.626702 547.553626,345.582702 548.158626,342.463702 C556.247626,300.734702 543.141626,266.053702 511.273626,244.809702 C479.987626,223.949702 453.124626,225.328702 436.093626,230.155702 C394.737626,241.865702 374.729626,283.138702 372.582626,287.808702 C364.956626,304.401702 372.226626,324.042702 388.819626,331.668702 C405.399626,339.305702 425.051626,332.029702 432.677626,315.431702 C434.788626,310.846702 444.157626,296.615702 454.120626,293.796702 C459.410626,292.298702 466.300626,294.323702 474.578626,299.846702 C497.480626,315.112702 472.894626,357.883702 472.728626,358.172702 C467.723626,366.546702 466.680626,376.699702 469.858626,385.917702 C473.037626,395.135702 480.117626,402.479702 489.226626,405.991702 C490.993626,406.675702 533.404626,422.724702 589.585626,417.972702 C641.556626,413.586702 716.203626,390.385702 776.736626,304.769702 C784.102626,294.350702 784.825626,280.615702 778.575626,269.485702 C777.460626,267.505702 750.763626,220.441702 702.184626,177.447702 C645.102626,126.915702 581.212626,102.422702 515.567626,105.602702 C513.183626,95.7847025 509.815626,84.7087025 505.094626,73.5407025 C484.292626,24.2627025 447.502626,-1.86529754 401.260626,0.103702465 C355.444626,2.00970246 330.479626,24.6607025 317.611626,43.3217025 C297.425626,72.5977025 294.342626,109.842702 295.883626,137.018702 C267.550626,145.518702 222.695626,161.626702 176.429626,188.870702 C73.8646265,249.255702 13.6276265,335.423702 2.2176265,438.056702 C-10.2943735,550.758702 30.5516265,650.938702 114.294626,712.911702 C164.178626,749.826702 223.763626,768.877702 283.312626,768.877702 C283.419626,768.877702 283.525626,768.861702 283.632626,768.861702 C309.214626,807.784702 371.123626,864.960702 445.023626,897.757702 C487.589626,916.646702 530.510626,926.104703 572.507626,926.104703 C609.913626,926.104703 646.596626,918.595702 681.595626,903.552702 C777.804626,862.199702 820.962626,791.835702 840.235626,740.091702 C863.718626,676.984702 864.074626,605.683702 841.125626,558.440702" id="Fill-8" fill="#16A085" fill-rule="nonzero"></path>
    </g>
</svg>